<svg width="1880" height="546" viewBox="0 0 1880 546" fill="none" xmlns="http://www.w3.org/2000/svg">
<path d="M0 153C0 141.954 8.95431 133 20 133H45.4464V425.945H0V153Z" fill="white"/>
<path d="M112.04 133C123.086 133 132.04 141.954 132.04 153L132.04 171.343C132.04 182.389 123.086 191.343 112.04 191.343L45.4462 191.343L45.4463 133L112.04 133Z" fill="white"/>
<path d="M180.824 191.343C191.87 191.343 200.824 200.298 200.824 211.343L200.824 251.181C200.824 262.227 191.87 271.181 180.824 271.181L132.041 271.181L132.041 191.343L180.824 191.343Z" fill="white"/>
<path d="M180.824 323.384C191.87 323.384 200.824 332.338 200.824 343.384L200.824 405.945C200.824 416.991 191.87 425.945 180.824 425.945L132.04 425.945L132.041 323.384L180.824 323.384Z" fill="white"/>
<path d="M132.04 271.182L132.04 323.384L45.4462 323.384L45.4463 271.182L132.04 271.182Z" fill="white"/>
<path d="M325.824 426V138H439.624C442.424 138 445.758 138.133 449.624 138.4C453.491 138.533 457.224 138.933 460.824 139.6C476.424 142 489.491 147.333 500.024 155.6C510.691 163.867 518.691 174.333 524.024 187C529.358 199.533 532.024 213.467 532.024 228.8C532.024 251.067 526.224 270.4 514.624 286.8C503.024 303.067 486.024 313.267 463.624 317.4L450.024 319.6H361.424V426H325.824ZM497.224 426L440.424 308.8L475.624 298L538.024 426H497.224ZM361.424 285.8H438.424C440.958 285.8 443.824 285.667 447.024 285.4C450.358 285.133 453.491 284.667 456.424 284C465.624 281.867 473.091 278 478.824 272.4C484.691 266.667 488.958 260 491.624 252.4C494.291 244.667 495.624 236.8 495.624 228.8C495.624 220.8 494.291 213 491.624 205.4C488.958 197.667 484.691 190.933 478.824 185.2C473.091 179.467 465.624 175.6 456.424 173.6C453.491 172.8 450.358 172.333 447.024 172.2C443.824 171.933 440.958 171.8 438.424 171.8H361.424V285.8ZM675.674 432C654.474 432 635.941 427.333 620.074 418C604.341 408.533 592.074 395.4 583.274 378.6C574.474 361.667 570.074 341.933 570.074 319.4C570.074 295.8 574.408 275.4 583.074 258.2C591.741 240.867 603.808 227.533 619.274 218.2C634.874 208.733 653.141 204 674.074 204C695.808 204 714.274 209 729.474 219C744.808 229 756.274 243.267 763.874 261.8C771.608 280.333 774.941 302.4 773.874 328H737.874V315.2C737.474 288.667 732.074 268.867 721.674 255.8C711.274 242.6 695.808 236 675.274 236C653.274 236 636.541 243.067 625.074 257.2C613.608 271.333 607.874 291.6 607.874 318C607.874 343.467 613.608 363.2 625.074 377.2C636.541 391.2 652.874 398.2 674.074 398.2C688.341 398.2 700.741 394.933 711.274 388.4C721.808 381.867 730.074 372.467 736.074 360.2L770.274 372C761.874 391.067 749.208 405.867 732.274 416.4C715.474 426.8 696.608 432 675.674 432ZM595.874 328V299.4H755.474V328H595.874ZM939.002 426C926.202 428.533 913.536 429.533 901.002 429C888.602 428.6 877.536 426.133 867.802 421.6C858.069 416.933 850.669 409.733 845.602 400C841.336 391.467 839.002 382.867 838.602 374.2C838.336 365.4 838.202 355.467 838.202 344.4V150H873.802V342.8C873.802 351.6 873.869 359.133 874.002 365.4C874.269 371.667 875.669 377.067 878.202 381.6C883.002 390.133 890.602 395.133 901.002 396.6C911.536 398.067 924.202 397.667 939.002 395.4V426ZM794.402 239.4V210H939.002V239.4H794.402ZM1067.47 432C1046.27 432 1027.74 427.333 1011.87 418C996.138 408.533 983.871 395.4 975.071 378.6C966.271 361.667 961.871 341.933 961.871 319.4C961.871 295.8 966.204 275.4 974.871 258.2C983.538 240.867 995.604 227.533 1011.07 218.2C1026.67 208.733 1044.94 204 1065.87 204C1087.6 204 1106.07 209 1121.27 219C1136.6 229 1148.07 243.267 1155.67 261.8C1163.4 280.333 1166.74 302.4 1165.67 328H1129.67V315.2C1129.27 288.667 1123.87 268.867 1113.47 255.8C1103.07 242.6 1087.6 236 1067.07 236C1045.07 236 1028.34 243.067 1016.87 257.2C1005.4 271.333 999.671 291.6 999.671 318C999.671 343.467 1005.4 363.2 1016.87 377.2C1028.34 391.2 1044.67 398.2 1065.87 398.2C1080.14 398.2 1092.54 394.933 1103.07 388.4C1113.6 381.867 1121.87 372.467 1127.87 360.2L1162.07 372C1153.67 391.067 1141 405.867 1124.07 416.4C1107.27 426.8 1088.4 432 1067.47 432ZM987.671 328V299.4H1147.27V328H987.671ZM1303.8 432C1282.6 432 1264.07 427.333 1248.2 418C1232.47 408.533 1220.2 395.4 1211.4 378.6C1202.6 361.667 1198.2 341.933 1198.2 319.4C1198.2 295.8 1202.53 275.4 1211.2 258.2C1219.87 240.867 1231.93 227.533 1247.4 218.2C1263 208.733 1281.27 204 1302.2 204C1323.93 204 1342.4 209 1357.6 219C1372.93 229 1384.4 243.267 1392 261.8C1399.73 280.333 1403.07 302.4 1402 328H1366V315.2C1365.6 288.667 1360.2 268.867 1349.8 255.8C1339.4 242.6 1323.93 236 1303.4 236C1281.4 236 1264.67 243.067 1253.2 257.2C1241.73 271.333 1236 291.6 1236 318C1236 343.467 1241.73 363.2 1253.2 377.2C1264.67 391.2 1281 398.2 1302.2 398.2C1316.47 398.2 1328.87 394.933 1339.4 388.4C1349.93 381.867 1358.2 372.467 1364.2 360.2L1398.4 372C1390 391.067 1377.33 405.867 1360.4 416.4C1343.6 426.8 1324.73 432 1303.8 432ZM1224 328V299.4H1383.6V328H1224ZM1594.47 426V317.8C1594.47 307.533 1593.53 297.667 1591.67 288.2C1589.93 278.733 1586.8 270.267 1582.27 262.8C1577.87 255.2 1571.87 249.2 1564.27 244.8C1556.8 240.4 1547.33 238.2 1535.87 238.2C1526.93 238.2 1518.8 239.733 1511.47 242.8C1504.27 245.733 1498.07 250.267 1492.87 256.4C1487.67 262.533 1483.6 270.267 1480.67 279.6C1477.87 288.8 1476.47 299.667 1476.47 312.2L1453.07 305C1453.07 284.067 1456.8 266.133 1464.27 251.2C1471.87 236.133 1482.47 224.6 1496.07 216.6C1509.8 208.467 1525.93 204.4 1544.47 204.4C1558.47 204.4 1570.4 206.6 1580.27 211C1590.13 215.4 1598.33 221.267 1604.87 228.6C1611.4 235.8 1616.53 243.933 1620.27 253C1624 261.933 1626.6 271.067 1628.07 280.4C1629.67 289.6 1630.47 298.333 1630.47 306.6V426H1594.47ZM1440.47 426V210H1472.47V267.8H1476.47V426H1440.47ZM1743.86 432C1727.73 432 1714.2 429.067 1703.26 423.2C1692.46 417.2 1684.26 409.333 1678.66 399.6C1673.2 389.867 1670.46 379.2 1670.46 367.6C1670.46 356.267 1672.6 346.467 1676.86 338.2C1681.26 329.8 1687.4 322.867 1695.26 317.4C1703.13 311.8 1712.53 307.4 1723.46 304.2C1733.73 301.4 1745.2 299 1757.86 297C1770.66 294.867 1783.6 292.933 1796.66 291.2C1809.73 289.467 1821.93 287.8 1833.26 286.2L1820.46 293.6C1820.86 274.4 1817 260.2 1808.86 251C1800.86 241.8 1787 237.2 1767.26 237.2C1754.2 237.2 1742.73 240.2 1732.86 246.2C1723.13 252.067 1716.26 261.667 1712.26 275L1678.46 264.8C1683.66 245.867 1693.73 231 1708.66 220.2C1723.6 209.4 1743.26 204 1767.66 204C1787.26 204 1804.06 207.533 1818.06 214.6C1832.2 221.533 1842.33 232.067 1848.46 246.2C1851.53 252.867 1853.46 260.133 1854.26 268C1855.06 275.733 1855.46 283.867 1855.46 292.4V426H1823.86V374.2L1831.26 379C1823.13 396.467 1811.73 409.667 1797.06 418.6C1782.53 427.533 1764.8 432 1743.86 432ZM1749.26 402.2C1762.06 402.2 1773.13 399.933 1782.46 395.4C1791.93 390.733 1799.53 384.667 1805.26 377.2C1811 369.6 1814.73 361.333 1816.46 352.4C1818.46 345.733 1819.53 338.333 1819.66 330.2C1819.93 321.933 1820.06 315.6 1820.06 311.2L1832.46 316.6C1820.86 318.2 1809.46 319.733 1798.26 321.2C1787.06 322.667 1776.46 324.267 1766.46 326C1756.46 327.6 1747.46 329.533 1739.46 331.8C1733.6 333.667 1728.06 336.067 1722.86 339C1717.8 341.933 1713.66 345.733 1710.46 350.4C1707.4 354.933 1705.86 360.6 1705.86 367.4C1705.86 373.267 1707.33 378.867 1710.26 384.2C1713.33 389.533 1718 393.867 1724.26 397.2C1730.66 400.533 1739 402.2 1749.26 402.2Z" fill="white"/>
</svg>
